<?xml version='1.0' encoding='UTF-8' standalone='no'?>
<svg viewBox="0 0 284 211" xmlns="http://www.w3.org/2000/svg" xmlns:xlink="http://www.w3.org/1999/xlink" height="211pt" width="284pt">
 <title>gl2ps_renderer figure</title>
 <desc>
Creator: GL2PS 1.4.2, (C) 1999-2020 C. Geuzaine
For: Octave
CreationDate: Sun Oct 10 18:14:49 2021
</desc>
 <defs/>
 <polygon points="0,0 284,0 284,211 0,211" fill="#ffffff"/>
 <g>
  <polygon shape-rendering="crispEdges" points="0,211 284,211 284,0 0,0" fill="#ffffff"/>
  <clipPath id="cp00284211">
   <polygon points="0,211 284,211 284,0 0,0"/>
  </clipPath>
  <g clip-path="url(#cp00284211)">
   <polygon shape-rendering="crispEdges" points="36.9254,187.792 257.058,187.792 257.058,15.8252 36.9254,15.8252" fill="#ffffff"/>
   <polyline stroke-width="0.5" points="36.9254,187.792 36.9254,185.591" fill="none" stroke="#262626" stroke-linecap="butt" stroke-linejoin="miter"/>
   <polyline stroke-width="0.5" points="36.9254,15.8252 36.9254,18.0261" fill="none" stroke="#262626" stroke-linecap="butt" stroke-linejoin="miter"/>
   <polyline stroke-width="0.5" points="91.9584,187.792 91.9584,185.591" fill="none" stroke="#262626" stroke-linecap="butt" stroke-linejoin="miter"/>
   <polyline stroke-width="0.5" points="91.9584,15.8252 91.9584,18.0261" fill="none" stroke="#262626" stroke-linecap="butt" stroke-linejoin="miter"/>
   <polyline stroke-width="0.5" points="146.991,187.792 146.991,185.591" fill="none" stroke="#262626" stroke-linecap="butt" stroke-linejoin="miter"/>
   <polyline stroke-width="0.5" points="146.991,15.8252 146.991,18.0261" fill="none" stroke="#262626" stroke-linecap="butt" stroke-linejoin="miter"/>
   <polyline stroke-width="0.5" points="202.025,187.792 202.025,185.591" fill="none" stroke="#262626" stroke-linecap="butt" stroke-linejoin="miter"/>
   <polyline stroke-width="0.5" points="202.025,15.8252 202.025,18.0261" fill="none" stroke="#262626" stroke-linecap="butt" stroke-linejoin="miter"/>
   <polyline stroke-width="0.5" points="257.058,187.792 257.058,185.591" fill="none" stroke="#262626" stroke-linecap="butt" stroke-linejoin="miter"/>
   <polyline stroke-width="0.5" points="257.058,15.8252 257.058,18.0261" fill="none" stroke="#262626" stroke-linecap="butt" stroke-linejoin="miter"/>
   <text xml:space="preserve" font-style="normal" transform="translate(29.4254,203.291) rotate(-0,7.5,-8)" font-size="10" font-weight="normal" font-family="FreeSans">
    <tspan x="0 3 9 " fill="rgb(38,38,38)" y="-0">-10</tspan>
   </text>
   <text xml:space="preserve" font-style="normal" transform="translate(87.4584,203.291) rotate(-0,4.5,-8)" font-size="10" font-weight="normal" font-family="FreeSans">
    <tspan x="0 3 " fill="rgb(38,38,38)" y="-0">-5</tspan>
   </text>
   <text xml:space="preserve" font-style="normal" transform="translate(143.991,203.291) rotate(-0,3,-8)" font-size="10" font-weight="normal" font-family="FreeSans">
    <tspan x="0 " fill="rgb(38,38,38)" y="-0">0</tspan>
   </text>
   <text xml:space="preserve" font-style="normal" transform="translate(199.025,203.291) rotate(-0,3,-8)" font-size="10" font-weight="normal" font-family="FreeSans">
    <tspan x="0 " fill="rgb(38,38,38)" y="-0">5</tspan>
   </text>
   <text xml:space="preserve" font-style="normal" transform="translate(251.058,203.291) rotate(-0,6,-8)" font-size="10" font-weight="normal" font-family="FreeSans">
    <tspan x="0 6 " fill="rgb(38,38,38)" y="-0">10</tspan>
   </text>
   <polyline stroke-width="0.5" points="36.9254,187.792 39.128,187.792" fill="none" stroke="#262626" stroke-linecap="butt" stroke-linejoin="miter"/>
   <polyline stroke-width="0.5" points="257.058,187.792 254.855,187.792" fill="none" stroke="#262626" stroke-linecap="butt" stroke-linejoin="miter"/>
   <polyline stroke-width="0.5" points="36.9254,153.399 39.128,153.399" fill="none" stroke="#262626" stroke-linecap="butt" stroke-linejoin="miter"/>
   <polyline stroke-width="0.5" points="257.058,153.399 254.855,153.399" fill="none" stroke="#262626" stroke-linecap="butt" stroke-linejoin="miter"/>
   <polyline stroke-width="0.5" points="36.9254,119.005 39.128,119.005" fill="none" stroke="#262626" stroke-linecap="butt" stroke-linejoin="miter"/>
   <polyline stroke-width="0.5" points="257.058,119.005 254.855,119.005" fill="none" stroke="#262626" stroke-linecap="butt" stroke-linejoin="miter"/>
   <polyline stroke-width="0.5" points="36.9254,84.6119 39.128,84.6119" fill="none" stroke="#262626" stroke-linecap="butt" stroke-linejoin="miter"/>
   <polyline stroke-width="0.5" points="257.058,84.6119 254.855,84.6119" fill="none" stroke="#262626" stroke-linecap="butt" stroke-linejoin="miter"/>
   <polyline stroke-width="0.5" points="36.9254,50.2185 39.128,50.2185" fill="none" stroke="#262626" stroke-linecap="butt" stroke-linejoin="miter"/>
   <polyline stroke-width="0.5" points="257.058,50.2185 254.855,50.2185" fill="none" stroke="#262626" stroke-linecap="butt" stroke-linejoin="miter"/>
   <polyline stroke-width="0.5" points="36.9254,15.8252 39.128,15.8252" fill="none" stroke="#262626" stroke-linecap="butt" stroke-linejoin="miter"/>
   <polyline stroke-width="0.5" points="257.058,15.8252 254.855,15.8252" fill="none" stroke="#262626" stroke-linecap="butt" stroke-linejoin="miter"/>
   <text xml:space="preserve" font-style="normal" transform="translate(10.9224,191.792) rotate(-0,21,-4)" font-size="10" font-weight="normal" font-family="FreeSans">
    <tspan x="0 3 9 15 " fill="rgb(38,38,38)" y="-0">-200</tspan>
   </text>
   <text xml:space="preserve" font-style="normal" transform="translate(10.9224,157.399) rotate(-0,21,-4)" font-size="10" font-weight="normal" font-family="FreeSans">
    <tspan x="0 3 9 15 " fill="rgb(38,38,38)" y="-0">-150</tspan>
   </text>
   <text xml:space="preserve" font-style="normal" transform="translate(10.9224,123.005) rotate(-0,21,-4)" font-size="10" font-weight="normal" font-family="FreeSans">
    <tspan x="0 3 9 15 " fill="rgb(38,38,38)" y="-0">-100</tspan>
   </text>
   <text xml:space="preserve" font-style="normal" transform="translate(16.9224,88.6119) rotate(-0,15,-4)" font-size="10" font-weight="normal" font-family="FreeSans">
    <tspan x="0 3 9 " fill="rgb(38,38,38)" y="-0">-50</tspan>
   </text>
   <text xml:space="preserve" font-style="normal" transform="translate(25.9224,54.2185) rotate(-0,6,-4)" font-size="10" font-weight="normal" font-family="FreeSans">
    <tspan x="0 " fill="rgb(38,38,38)" y="-0">0</tspan>
   </text>
   <text xml:space="preserve" font-style="normal" transform="translate(19.9224,19.8252) rotate(-0,12,-4)" font-size="10" font-weight="normal" font-family="FreeSans">
    <tspan x="0 6 " fill="rgb(38,38,38)" y="-0">50</tspan>
   </text>
   <polyline stroke-width="0.5" points="36.9254,187.792 257.058,187.792" fill="none" stroke="#262626" stroke-linecap="square" stroke-linejoin="miter" stroke-dasharray="16,0"/>
   <polyline stroke-width="0.5" points="36.9254,15.8252 257.058,15.8252" fill="none" stroke="#262626" stroke-linecap="square" stroke-linejoin="miter" stroke-dasharray="16,0"/>
   <polyline stroke-width="0.5" points="36.9254,187.792 36.9254,15.8252" fill="none" stroke="#262626" stroke-linecap="square" stroke-linejoin="miter" stroke-dasharray="16,0"/>
   <polyline stroke-width="0.5" points="257.058,187.792 257.058,15.8252" fill="none" stroke="#262626" stroke-linecap="square" stroke-linejoin="miter" stroke-dasharray="16,0"/>
   <polyline stroke-width="0.5" points="36.9254,118.631 39.1267,116.029 41.328,113.492 43.5294,111.016 45.7307,108.593 47.932,106.219 50.1333,103.889 52.3346,101.598 54.536,99.3423 56.7373,97.1178 58.9386,94.9226 61.1399,92.7553 63.3412,90.6156 65.5426,88.5043 67.7439,86.4235 69.9452,84.376 72.1465,82.3654 74.3479,80.3963 76.5492,78.4738 78.7505,76.603 80.9518,74.7896 83.1531,73.0388 85.3545,71.3558 87.5558,69.7452 89.7571,68.2108 91.9584,66.7556 94.1598,65.3818 96.3611,64.0903 98.5624,62.8811 100.764,61.753 102.965,60.7038 105.166,59.7305 107.368,58.8289 109.569,57.9945 111.77,57.2221 113.972,56.5064 116.173,55.8418 118.374,55.2231 120.576,54.6453 122.777,54.104 124.978,53.5955 127.18,53.1171 129.381,52.6671 131.582,52.2446 133.784,51.8502 135.985,51.4852 138.186,51.1522 140.388,50.8546 142.589,50.5965 144.79,50.3827 146.991,50.2185 149.193,50.1094 151.394,50.0607 153.595,50.0778 155.797,50.1653 157.998,50.3276 160.199,50.5679 162.401,50.8889 164.602,51.2919 166.803,51.7773 169.005,52.3445 171.206,52.9917 173.407,53.716 175.609,54.5139 177.81,55.381 180.011,56.3123 182.213,57.3024 184.414,58.3461 186.615,59.4377 188.817,60.5722 191.018,61.745 193.219,62.952 195.421,64.1902 197.622,65.4573 199.823,66.7522 202.025,68.0748 204.226,69.4262 206.427,70.8083 208.628,72.2243 210.83,73.678 213.031,75.174 215.232,76.7173 217.434,78.3134 219.635,79.9677 221.836,81.6856 224.038,83.4721 226.239,85.3316 228.44,87.268 230.642,89.284 232.843,91.3815 235.044,93.5615 237.246,95.8236 239.447,98.1666 241.648,100.588 243.85,103.085 246.051,105.652 248.252,108.286 250.454,110.981 252.655,113.732 254.856,116.533 257.058,119.38" fill="none" stroke="#0071bc" stroke-linecap="butt" stroke-linejoin="round"/>
   <polyline stroke-width="0.5" points="36.9254,47.0486 39.1267,47.0766 41.328,47.1052 43.5294,47.1344 45.7307,47.1643 47.932,47.1949 50.1333,47.2263 52.3346,47.2584 54.536,47.2913 56.7373,47.325 58.9386,47.3597 61.1399,47.3953 63.3412,47.4319 65.5426,47.4696 67.7439,47.5084 69.9452,47.5484 72.1465,47.5896 74.3479,47.6322 76.5492,47.6762 78.7505,47.7218 80.9518,47.769 83.1531,47.8179 85.3545,47.8687 87.5558,47.9215 89.7571,47.9765 91.9584,48.0339 94.1598,48.0937 96.3611,48.1563 98.5624,48.2218 100.764,48.2905 102.965,48.3627 105.166,48.4388 107.368,48.5189 109.569,48.6035 111.77,48.6931 113.972,48.7881 116.173,48.8891 118.374,48.9966 120.576,49.1112 122.777,49.2336 124.978,49.3645 127.18,49.5045 129.381,49.6542 131.582,49.8136 133.784,49.9825 135.985,50.159 138.186,50.3393 140.388,50.5166 142.589,50.6796 144.79,50.814 146.991,50.9064 149.193,50.9518 151.394,50.9566 153.595,50.9355 155.797,50.9044 157.998,50.8758 160.199,50.8583 162.401,50.8573 164.602,50.876 166.803,50.9167 169.005,50.9813 171.206,51.0711 173.407,51.1878 175.609,51.3331 177.81,51.5089 180.011,51.7175 182.213,51.9613 184.414,52.2432 186.615,52.5665 188.817,52.9349 191.018,53.3524 193.219,53.8235 195.421,54.3536 197.622,54.9482 199.823,55.6138 202.025,56.3573 204.226,57.1867 206.427,58.1106 208.628,59.1386 210.83,60.2814 213.031,61.5509 215.232,62.96 217.434,64.5233 219.635,66.2567 221.836,68.178 224.038,70.3066 226.239,72.6643 228.44,75.275 230.642,78.165 232.843,81.3637 235.044,84.9034 237.246,88.8198 239.447,93.1523 241.648,97.9447 243.85,103.245 246.051,109.107 248.252,115.589 250.454,122.757 252.655,130.683 254.856,139.445 257.058,149.133" fill="none" stroke="#d85218" stroke-linecap="butt" stroke-linejoin="round"/>
  </g>
 </g>
</svg>
